# xmcd
#
# Track frame offsets: 
#        182
#        14135
#        27572
#        40157
#        53017
#        65185
#        76570
#        89132
#        100625
#        113222
#        125842
#        136847
#        148860
#        160972
#        171862
#        184072
#        197190
#        209200
#        222247
#        233795
#
# Disc length: 3274 seconds
#
# Revision: 1
# Processed by: cddbd v1.5.2PL0 Copyright (c) Steve Scherf et al.
# Submitted via: ExactAudioCopyFreeDBPlugin 1.0
#
DISCID=330cc814
DTITLE=The Drifters - Greatest Hits and More, 1953-1965
DYEAR=1988
DGENRE=Rhythm and Blues
TTITLE0=Lucille
TTITLE1=Money Honey
TTITLE2=The Way I Feel
TTITLE3=Let the Boogie Woogie Roll
TTITLE4=Gone
TTITLE5=Such a Night
TTITLE6=Warm Your Heart
TTITLE7=Don't Dog Me
TTITLE8=Bip Bam
TTITLE9=What'cha Gonna Do
TTITLE10=Honey Love
TTITLE11=White Christmas
TTITLE12=Bells of St. Mary's
TTITLE13=If I Didn't Love You Like I Do
TTITLE14=There You Go
TTITLE15=Some Day You'll Want Me to Want You
TTITLE16=Try Try Baby
TTITLE17=Everyone's Laughing
TTITLE18=Hot Ziggety
TTITLE19=Three Thirty Three
EXTD=
EXTT0=
EXTT1=
EXTT2=
EXTT3=
EXTT4=
EXTT5=
EXTT6=
EXTT7=
EXTT8=
EXTT9=
EXTT10=
EXTT11=
EXTT12=
EXTT13=
EXTT14=
EXTT15=
EXTT16=
EXTT17=
EXTT18=
EXTT19=
PLAYORDER=
